<svg xmlns="http://www.w3.org/2000/svg" xmlns:xlink="http://www.w3.org/1999/xlink" contentStyleType="text/css" data-diagram-type="DESCRIPTION" height="556px" preserveAspectRatio="none" style="width:471px;height:556px;background:#FFFFFF;" version="1.1" viewBox="0 0 471 556" width="471px" zoomAndPan="magnify"><title>Event Management - Context Diagram</title><defs/><g><g class="title" data-source-line="23"><text fill="#000000" font-family="sans-serif" font-size="14" font-weight="bold" lengthAdjust="spacing" textLength="252.0479" x="102.55" y="24.5332">Event Management - Context Diagram</text></g><!--cluster Next.js App--><g class="cluster" data-entity="Next.js App" data-source-line="26" data-uid="ent0003" id="cluster_Next.js App"><path d="M48.789,186.1094 L126.8027,186.1094 A3.75,3.75 0 0 1 129.3027,188.6094 L136.3027,209.7188 L253.789,209.7188 A2.5,2.5 0 0 1 256.289,212.2188 L256.289,283.6094 A2.5,2.5 0 0 1 253.789,286.1094 L48.789,286.1094 A2.5,2.5 0 0 1 46.289,283.6094 L46.289,188.6094 A2.5,2.5 0 0 1 48.789,186.1094" fill="none" style="stroke:#000000;stroke-width:1.5;"/><line style="stroke:#000000;stroke-width:1.5;" x1="46.289" x2="136.3027" y1="209.7188" y2="209.7188"/><text fill="#000000" font-family="sans-serif" font-size="14" font-weight="bold" lengthAdjust="spacing" textLength="77.0137" x="50.289" y="202.6426">Next.js App</text></g><!--entity NextApp--><g class="entity" data-entity="NextApp" data-source-line="27" data-uid="ent0004" id="entity_NextApp"><polygon fill="#F1F1F1" points="62.789,232.1094,72.789,222.1094,240.1435,222.1094,240.1435,259.7188,230.1435,269.7188,62.789,269.7188,62.789,232.1094" style="stroke:#181818;stroke-width:0.5;"/><line style="stroke:#181818;stroke-width:0.5;" x1="230.1435" x2="240.1435" y1="232.1094" y2="222.1094"/><line style="stroke:#181818;stroke-width:0.5;" x1="62.789" x2="230.1435" y1="232.1094" y2="232.1094"/><line style="stroke:#181818;stroke-width:0.5;" x1="230.1435" x2="230.1435" y1="232.1094" y2="269.7188"/><text fill="#000000" font-family="sans-serif" font-size="14" lengthAdjust="spacing" textLength="137.3545" x="77.789" y="256.6426">Frontend + API routes</text></g><!--entity Client--><g class="entity" data-entity="Client" data-source-line="25" data-uid="ent0002" id="entity_Client"><ellipse cx="151.2578" cy="52.6094" fill="#F1F1F1" rx="8" ry="8" style="stroke:#181818;stroke-width:0.5;"/><path d="M151.2578,60.6094 L151.2578,87.6094 M138.2578,68.6094 L164.2578,68.6094 M151.2578,87.6094 L138.2578,102.6094 M151.2578,87.6094 L164.2578,102.6094" fill="none" style="stroke:#181818;stroke-width:0.5;"/><text fill="#000000" font-family="sans-serif" font-size="14" lengthAdjust="spacing" textLength="143.9375" x="79.289" y="118.6426">Browser / Mobile Client</text></g><!--entity DB--><g class="entity" data-entity="DB" data-source-line="29" data-uid="ent0005" id="entity_DB"><path d="M186.789,503.1094 C186.789,493.1094 251.251,493.1094 251.251,493.1094 C251.251,493.1094 315.7129,493.1094 315.7129,503.1094 L315.7129,529.7188 C315.7129,539.7188 251.251,539.7188 251.251,539.7188 C251.251,539.7188 186.789,539.7188 186.789,529.7188 L186.789,503.1094" fill="#F1F1F1" style="stroke:#181818;stroke-width:0.5;"/><path d="M186.789,503.1094 C186.789,513.1094 251.251,513.1094 251.251,513.1094 C251.251,513.1094 315.7129,513.1094 315.7129,503.1094" fill="none" style="stroke:#181818;stroke-width:0.5;"/><text fill="#000000" font-family="sans-serif" font-size="14" lengthAdjust="spacing" textLength="108.9238" x="196.789" y="531.6426">PostgreSQL (DB)</text></g><!--entity External--><g class="entity" data-entity="External" data-source-line="30" data-uid="ent0006" id="entity_External"><path d="M16.1908,358.8911 C18.9337,353.27 22.9866,352.9541 27.0099,357.533 C29.5879,351.0328 35.1595,351.8389 38.6727,356.5612 C41.826,350.3077 45.8001,349.2885 50.4018,355.1601 C52.5036,349.5166 55.9225,349.3571 60.2968,352.6415 C62.7718,346.8255 68.0927,346.5402 71.9731,351.0527 C74.5105,346.2936 78.3416,345.1854 81.7373,350.1948 C85.7355,344.7876 89.1585,345.4166 92.6494,350.712 C96.7862,344.907 102.1913,345.5056 105.0285,352.0181 C108.7816,347.9379 113.9683,348.8789 115.9705,354.0819 C119.9246,350.1619 123.1867,351.263 125.4717,355.9289 C130.6345,350.7532 135.3,352.0804 138.2366,358.4009 C142.5013,353.3131 146.38,354.5458 149.2093,359.9081 C154.7311,362.6268 154.4993,366.4813 150.6983,370.5095 C156.415,373.9179 157.6335,378.1021 152.1984,382.8645 C157.4133,387.1234 156.2637,393.5733 149.9766,395.8667 C155.7119,400.1705 154.0645,405.1418 148.1494,407.6369 C145.6113,415.3685 138.9587,415.5236 134.6786,409.3209 C130.9443,414.9759 125.9222,416.6114 121.3912,410.1982 C117.9986,415.4688 112.7961,416.3977 109.682,409.9207 C106.5261,417.4411 101.0098,417.4708 95.8455,412.0718 C92.4681,418.2682 86.4331,419.6478 81.9306,413.3219 C77.1906,419.5849 71.922,418.0587 68.8434,411.6112 C65,417.5184 61.2049,417.768 57.4184,411.5575 C53.181,417.6299 47.171,416.2644 44.1821,410.1962 C39.9589,417.1172 33.3849,417.0376 29.4022,409.9426 C25.6223,415.7071 20.4126,414.7126 17.4794,409.0586 C9.3704,407.0346 7.6171,401.7515 13.4869,395.5852 C6.3076,393.0791 6.2761,387.6713 11.2487,383.0035 C6,378.1955 7.6612,372.2646 14.487,370.6121 C9.6096,366.7252 9.3001,361.0674 16.1908,358.8911" fill="#F1F1F1" style="stroke:#181818;stroke-width:0.5;"/><text fill="#000000" font-family="sans-serif" font-size="14" lengthAdjust="spacing" textLength="108.9307" x="22.789" y="379.6426">External Services</text><text fill="#000000" font-family="sans-serif" font-size="14" lengthAdjust="spacing" textLength="117.4824" x="22.789" y="397.252">Auth / Email / SMS</text></g><!--entity Prisma--><g class="entity" data-entity="Prisma" data-source-line="31" data-uid="ent0007" id="entity_Prisma"><rect fill="#F1F1F1" height="47.6094" rx="2.5" ry="2.5" style="stroke:#181818;stroke-width:0.5;" width="123.2412" x="189.789" y="358.6094"/><rect fill="#F1F1F1" height="10" style="stroke:#181818;stroke-width:0.5;" width="15" x="293.0303" y="363.6094"/><rect fill="#F1F1F1" height="2" style="stroke:#181818;stroke-width:0.5;" width="4" x="291.0303" y="365.6094"/><rect fill="#F1F1F1" height="2" style="stroke:#181818;stroke-width:0.5;" width="4" x="291.0303" y="369.6094"/><text fill="#000000" font-family="sans-serif" font-size="14" lengthAdjust="spacing" textLength="83.2412" x="204.789" y="393.1426">Prisma Client</text></g><g class="entity" data-entity="GMN12" data-source-line="39" data-uid="ent0013" id="entity_GMN12"><path d="M274.789,224.6094 L274.789,242.1094 L239.849,246.1094 L274.789,250.1094 L274.789,267.3125 A0,0 0 0 0 274.789,267.3125 L464.1479,267.3125 A0,0 0 0 0 464.1479,267.3125 L464.1479,234.6094 L454.1479,224.6094 L274.789,224.6094 A0,0 0 0 0 274.789,224.6094" fill="#FEFFDD" style="stroke:#181818;stroke-width:0.5;"/><path d="M454.1479,224.6094 L454.1479,234.6094 L464.1479,234.6094 L454.1479,224.6094" fill="#FEFFDD" style="stroke:#181818;stroke-width:0.5;"/><text fill="#000000" font-family="sans-serif" font-size="13" lengthAdjust="spacing" textLength="168.3589" x="280.789" y="243.1045">Hosts server-rendered pages</text><text fill="#000000" font-family="sans-serif" font-size="13" lengthAdjust="spacing" textLength="85.998" x="280.789" y="259.4561">and API routes</text></g><!--link Client to NextApp--><g class="link" data-entity-1="Client" data-entity-2="NextApp" data-source-line="33" data-uid="lnk8" id="link_Client_NextApp"><path d="M151.289,122.2594 C151.289,153.1394 151.289,189.6194 151.289,215.6794" fill="none" id="Client-to-NextApp" style="stroke:#181818;stroke-width:1;"/><polygon fill="#181818" points="151.289,221.6794,155.289,212.6794,151.289,216.6794,147.289,212.6794,151.289,221.6794" style="stroke:#181818;stroke-width:1;"/><text fill="#000000" font-family="sans-serif" font-size="13" lengthAdjust="spacing" textLength="42.6118" x="152.289" y="166.6045">HTTPS</text></g><!--link NextApp to Prisma--><g class="link" data-entity-1="NextApp" data-entity-2="Prisma" data-source-line="34" data-uid="lnk9" id="link_NextApp_Prisma"><path d="M168.479,270.2294 C186.799,294.8694 212.0487,328.8347 230.4087,353.5247" fill="none" id="NextApp-to-Prisma" style="stroke:#181818;stroke-width:1;"/><polygon fill="#181818" points="233.989,358.3394,231.8284,348.7304,231.0054,354.3271,225.4088,353.5042,233.989,358.3394" style="stroke:#181818;stroke-width:1;"/><text fill="#000000" font-family="sans-serif" font-size="13" lengthAdjust="spacing" textLength="59.9473" x="204.289" y="316.6045">ORM calls</text></g><!--link Prisma to DB--><g class="link" data-entity-1="Prisma" data-entity-2="DB" data-source-line="35" data-uid="lnk10" id="link_Prisma_DB"><path d="M251.289,406.9094 C251.289,431.1794 251.289,462.9694 251.289,486.9894" fill="none" id="Prisma-to-DB" style="stroke:#181818;stroke-width:1;"/><polygon fill="#181818" points="251.289,492.9894,255.289,483.9894,251.289,487.9894,247.289,483.9894,251.289,492.9894" style="stroke:#181818;stroke-width:1;"/><text fill="#000000" font-family="sans-serif" font-size="13" lengthAdjust="spacing" textLength="26.0127" x="252.289" y="459.6045">SQL</text></g><!--link NextApp to External--><g class="link" data-entity-1="NextApp" data-entity-2="External" data-source-line="36" data-uid="lnk11" id="link_NextApp_External"><path d="M129.799,270.1494 C121.889,279.5294 113.389,290.8094 107.289,302.1094 C99.209,317.0594 94.7298,329.1781 90.4598,344.1981" fill="none" id="NextApp-to-External" style="stroke:#181818;stroke-width:1;"/><polygon fill="#181818" points="88.819,349.9694,95.1277,342.4062,90.1863,345.1599,87.4326,340.2186,88.819,349.9694" style="stroke:#181818;stroke-width:1;"/><text fill="#000000" font-family="sans-serif" font-size="13" lengthAdjust="spacing" textLength="70.0845" x="108.289" y="316.6045">Auth / Email</text></g><!--SRC=[LL3BJiCm4BplLuno0g70lGUafYag4e50UkIo92OrE7PakwKIujzPzqKvUJspCvgTgADHc6-KZQZOSg-6DEQOEHlLDgBKt7iUYBYDpYChlFiAokC6bNlJefqPBOeC70uZZTn-YX6oHp6u_WYOZcE6RmAiwmI-yydRThZ2jBw7T-kemiuW2MIPVgZZo6ySPBjs8VPUDSyFk2YBozrUML1htBf3Djz6vIqRDCflTAl2gvskuqhYpGVMHjwcQdQQuoQrRXYTJLTcjTTXuFCJzWZH7aAUtnv3OOB5SbatTFmdxc0mmTDBXPQD2NI04biMmaZmVv9JuWdEan9P5nMyxbSHxlrK1R2G0WAayutokPVUb5STHcau2ClIur-Bb6fDHlGB]--></g></svg>