<svg xmlns="http://www.w3.org/2000/svg" xmlns:xlink="http://www.w3.org/1999/xlink" contentStyleType="text/css" data-diagram-type="CLASS" height="1361px" preserveAspectRatio="none" style="width:973px;height:1361px;background:#FFFFFF;" version="1.1" viewBox="0 0 973 1361" width="973px" zoomAndPan="magnify"><title>Database Schema - Event Management</title><defs/><g><g class="title" data-source-line="1"><text fill="#000000" font-family="sans-serif" font-size="14" font-weight="bold" lengthAdjust="spacing" textLength="259.8682" x="349.8774" y="24.5332">Database Schema - Event Management</text></g><!--class User--><g class="entity" data-entity="User" data-source-line="5" data-uid="ent0002" id="entity_User"><rect fill="#F1F1F1" height="206.4844" rx="2.5" ry="2.5" style="stroke:#181818;stroke-width:0.5;" width="208.0957" x="7" y="277.6094"/><ellipse cx="92.0186" cy="293.6094" fill="#ADD1B2" rx="11" ry="11" style="stroke:#181818;stroke-width:1;"/><path d="M90.8779,294.4063 L90.8779,296.9063 L95.2061,296.9063 L95.2061,295.9844 Q95.2061,295.375 95.4404,295.1094 Q95.6904,294.8438 96.0654,294.8438 Q96.4404,294.8438 96.6748,295.1094 Q96.9092,295.375 96.9092,295.9844 L96.9092,298.6094 L88.9092,298.6094 Q88.2842,298.6094 88.0186,298.375 Q87.7686,298.1406 87.7686,297.75 Q87.7686,297.375 88.0342,297.1406 Q88.2998,296.9063 88.9092,296.9063 L89.1748,296.9063 L89.1748,290.25 L88.9092,290.25 Q88.2842,290.25 88.0186,290.0156 Q87.7686,289.7813 87.7686,289.3906 Q87.7686,289.0156 88.0186,288.7813 Q88.2842,288.5469 88.9092,288.5469 L96.5342,288.5469 L96.5342,291.1406 Q96.5342,291.75 96.2998,292.0156 Q96.0811,292.2656 95.6904,292.2656 Q95.3154,292.2656 95.0811,292.0156 Q94.8467,291.75 94.8467,291.1406 L94.8467,290.25 L90.8779,290.25 L90.8779,292.7031 L92.3623,292.7031 Q92.3623,292.0469 92.4873,291.8594 Q92.7529,291.4531 93.2217,291.4531 Q93.5967,291.4531 93.8311,291.7188 Q94.0654,291.9688 94.0654,292.5781 L94.0654,294.5469 Q94.0654,295.0938 93.9404,295.2813 Q93.6748,295.6719 93.2217,295.6719 Q92.7529,295.6719 92.4873,295.2656 Q92.3623,295.0781 92.3623,294.4063 L90.8779,294.4063 Z " fill="#000000"/><text fill="#000000" font-family="sans-serif" font-size="14" lengthAdjust="spacing" textLength="29.5586" x="112.5186" y="299.3379">User</text><line style="stroke:#181818;stroke-width:0.5;" x1="8" x2="214.0957" y1="309.6094" y2="309.6094"/><text fill="#000000" font-family="sans-serif" font-size="14" lengthAdjust="spacing" textLength="108.1582" x="13" y="328.1426">password : String</text><text fill="#000000" font-family="sans-serif" font-size="14" lengthAdjust="spacing" textLength="83.2617" x="13" y="345.752">name : String</text><text fill="#000000" font-family="sans-serif" font-size="14" lengthAdjust="spacing" textLength="93.3652" x="13" y="363.3613">role : UserRole</text><text fill="#000000" font-family="sans-serif" font-size="14" lengthAdjust="spacing" textLength="132.2754" x="13" y="380.9707">createdAt : DateTime</text><text fill="#000000" font-family="sans-serif" font-size="14" lengthAdjust="spacing" textLength="136.1855" x="13" y="398.5801">updatedAt : DateTime</text><line style="stroke:#181818;stroke-width:0.5;" x1="8" x2="214.0957" y1="405.6563" y2="405.6563"/><text fill="#000000" font-family="sans-serif" font-size="14" lengthAdjust="spacing" textLength="91.0273" x="13" y="424.1895">id : String (PK)</text><text fill="#000000" font-family="sans-serif" font-size="14" lengthAdjust="spacing" textLength="115.9102" x="13" y="441.7988">email : String (UQ)</text><text fill="#000000" font-family="sans-serif" font-size="14" lengthAdjust="spacing" textLength="196.0957" x="13" y="459.4082">studentId : String (UQ, nullable)</text><text fill="#000000" font-family="sans-serif" font-size="14" lengthAdjust="spacing" textLength="147.8477" x="13" y="477.0176">image : String (nullable)</text></g><!--class Speaker--><g class="entity" data-entity="Speaker" data-source-line="17" data-uid="ent0003" id="entity_Speaker"><rect fill="#F1F1F1" height="224.0938" rx="2.5" ry="2.5" style="stroke:#181818;stroke-width:0.5;" width="197.9922" x="74" y="1130.6094"/><ellipse cx="142.6738" cy="1146.6094" fill="#ADD1B2" rx="11" ry="11" style="stroke:#181818;stroke-width:1;"/><path d="M141.5332,1147.4063 L141.5332,1149.9063 L145.8613,1149.9063 L145.8613,1148.9844 Q145.8613,1148.375 146.0957,1148.1094 Q146.3457,1147.8438 146.7207,1147.8438 Q147.0957,1147.8438 147.3301,1148.1094 Q147.5645,1148.375 147.5645,1148.9844 L147.5645,1151.6094 L139.5645,1151.6094 Q138.9395,1151.6094 138.6738,1151.375 Q138.4238,1151.1406 138.4238,1150.75 Q138.4238,1150.375 138.6895,1150.1406 Q138.9551,1149.9063 139.5645,1149.9063 L139.8301,1149.9063 L139.8301,1143.25 L139.5645,1143.25 Q138.9395,1143.25 138.6738,1143.0156 Q138.4238,1142.7813 138.4238,1142.3906 Q138.4238,1142.0156 138.6738,1141.7813 Q138.9395,1141.5469 139.5645,1141.5469 L147.1895,1141.5469 L147.1895,1144.1406 Q147.1895,1144.75 146.9551,1145.0156 Q146.7363,1145.2656 146.3457,1145.2656 Q145.9707,1145.2656 145.7363,1145.0156 Q145.502,1144.75 145.502,1144.1406 L145.502,1143.25 L141.5332,1143.25 L141.5332,1145.7031 L143.0176,1145.7031 Q143.0176,1145.0469 143.1426,1144.8594 Q143.4082,1144.4531 143.877,1144.4531 Q144.252,1144.4531 144.4863,1144.7188 Q144.7207,1144.9688 144.7207,1145.5781 L144.7207,1147.5469 Q144.7207,1148.0938 144.5957,1148.2813 Q144.3301,1148.6719 143.877,1148.6719 Q143.4082,1148.6719 143.1426,1148.2656 Q143.0176,1148.0781 143.0176,1147.4063 L141.5332,1147.4063 Z " fill="#000000"/><text fill="#000000" font-family="sans-serif" font-size="14" lengthAdjust="spacing" textLength="52.1445" x="163.1738" y="1152.3379">Speaker</text><line style="stroke:#181818;stroke-width:0.5;" x1="75" x2="270.9922" y1="1162.6094" y2="1162.6094"/><text fill="#000000" font-family="sans-serif" font-size="14" lengthAdjust="spacing" textLength="83.2617" x="80" y="1181.1426">name : String</text><text fill="#000000" font-family="sans-serif" font-size="14" lengthAdjust="spacing" textLength="132.2754" x="80" y="1198.752">createdAt : DateTime</text><text fill="#000000" font-family="sans-serif" font-size="14" lengthAdjust="spacing" textLength="136.1855" x="80" y="1216.3613">updatedAt : DateTime</text><line style="stroke:#181818;stroke-width:0.5;" x1="75" x2="270.9922" y1="1223.4375" y2="1223.4375"/><text fill="#000000" font-family="sans-serif" font-size="14" lengthAdjust="spacing" textLength="91.0273" x="80" y="1241.9707">id : String (PK)</text><text fill="#000000" font-family="sans-serif" font-size="14" lengthAdjust="spacing" textLength="119.0547" x="80" y="1259.5801">bio : Text (nullable)</text><text fill="#000000" font-family="sans-serif" font-size="14" lengthAdjust="spacing" textLength="131.5029" x="80" y="1277.1895">title : String (nullable)</text><text fill="#000000" font-family="sans-serif" font-size="14" lengthAdjust="spacing" textLength="185.9922" x="80" y="1294.7988">organization : String (nullable)</text><text fill="#000000" font-family="sans-serif" font-size="14" lengthAdjust="spacing" textLength="162.6338" x="80" y="1312.4082">photoUrl : String (nullable)</text><text fill="#000000" font-family="sans-serif" font-size="14" lengthAdjust="spacing" textLength="143.1719" x="80" y="1330.0176">email : String (nullable)</text><text fill="#000000" font-family="sans-serif" font-size="14" lengthAdjust="spacing" textLength="148.6475" x="80" y="1347.627">phone : String (nullable)</text></g><!--class Venue--><g class="entity" data-entity="Venue" data-source-line="30" data-uid="ent0004" id="entity_Venue"><rect fill="#F1F1F1" height="188.875" rx="2.5" ry="2.5" style="stroke:#181818;stroke-width:0.5;" width="177.7305" x="341" y="1148.1094"/><ellipse cx="405.374" cy="1164.1094" fill="#ADD1B2" rx="11" ry="11" style="stroke:#181818;stroke-width:1;"/><path d="M404.2334,1164.9063 L404.2334,1167.4063 L408.5615,1167.4063 L408.5615,1166.4844 Q408.5615,1165.875 408.7959,1165.6094 Q409.0459,1165.3438 409.4209,1165.3438 Q409.7959,1165.3438 410.0303,1165.6094 Q410.2646,1165.875 410.2646,1166.4844 L410.2646,1169.1094 L402.2646,1169.1094 Q401.6396,1169.1094 401.374,1168.875 Q401.124,1168.6406 401.124,1168.25 Q401.124,1167.875 401.3896,1167.6406 Q401.6553,1167.4063 402.2646,1167.4063 L402.5303,1167.4063 L402.5303,1160.75 L402.2646,1160.75 Q401.6396,1160.75 401.374,1160.5156 Q401.124,1160.2813 401.124,1159.8906 Q401.124,1159.5156 401.374,1159.2813 Q401.6396,1159.0469 402.2646,1159.0469 L409.8896,1159.0469 L409.8896,1161.6406 Q409.8896,1162.25 409.6553,1162.5156 Q409.4365,1162.7656 409.0459,1162.7656 Q408.6709,1162.7656 408.4365,1162.5156 Q408.2021,1162.25 408.2021,1161.6406 L408.2021,1160.75 L404.2334,1160.75 L404.2334,1163.2031 L405.7178,1163.2031 Q405.7178,1162.5469 405.8428,1162.3594 Q406.1084,1161.9531 406.5771,1161.9531 Q406.9521,1161.9531 407.1865,1162.2188 Q407.4209,1162.4688 407.4209,1163.0781 L407.4209,1165.0469 Q407.4209,1165.5938 407.2959,1165.7813 Q407.0303,1166.1719 406.5771,1166.1719 Q406.1084,1166.1719 405.8428,1165.7656 Q405.7178,1165.5781 405.7178,1164.9063 L404.2334,1164.9063 Z " fill="#000000"/><text fill="#000000" font-family="sans-serif" font-size="14" lengthAdjust="spacing" textLength="40.4824" x="425.874" y="1169.8379">Venue</text><line style="stroke:#181818;stroke-width:0.5;" x1="342" x2="517.7305" y1="1180.1094" y2="1180.1094"/><text fill="#000000" font-family="sans-serif" font-size="14" lengthAdjust="spacing" textLength="83.2617" x="347" y="1198.6426">name : String</text><text fill="#000000" font-family="sans-serif" font-size="14" lengthAdjust="spacing" textLength="98.0479" x="347" y="1216.252">address : String</text><text fill="#000000" font-family="sans-serif" font-size="14" lengthAdjust="spacing" textLength="78.5928" x="347" y="1233.8613">capacity : Int</text><text fill="#000000" font-family="sans-serif" font-size="14" lengthAdjust="spacing" textLength="105.8135" x="347" y="1251.4707">facilities : String[]</text><text fill="#000000" font-family="sans-serif" font-size="14" lengthAdjust="spacing" textLength="132.2754" x="347" y="1269.0801">createdAt : DateTime</text><text fill="#000000" font-family="sans-serif" font-size="14" lengthAdjust="spacing" textLength="136.1855" x="347" y="1286.6895">updatedAt : DateTime</text><line style="stroke:#181818;stroke-width:0.5;" x1="342" x2="517.7305" y1="1293.7656" y2="1293.7656"/><text fill="#000000" font-family="sans-serif" font-size="14" lengthAdjust="spacing" textLength="91.0273" x="347" y="1312.2988">id : String (PK)</text><text fill="#000000" font-family="sans-serif" font-size="14" lengthAdjust="spacing" textLength="165.7305" x="347" y="1329.9082">imageUrl : String (nullable)</text></g><!--class Event--><g class="entity" data-entity="Event" data-source-line="41" data-uid="ent0005" id="entity_Event"><rect fill="#F1F1F1" height="276.9219" rx="2.5" ry="2.5" style="stroke:#181818;stroke-width:0.5;" width="208.8682" x="197.5" y="775.6094"/><ellipse cx="279.7842" cy="791.6094" fill="#ADD1B2" rx="11" ry="11" style="stroke:#181818;stroke-width:1;"/><path d="M278.6436,792.4063 L278.6436,794.9063 L282.9717,794.9063 L282.9717,793.9844 Q282.9717,793.375 283.2061,793.1094 Q283.4561,792.8438 283.8311,792.8438 Q284.2061,792.8438 284.4404,793.1094 Q284.6748,793.375 284.6748,793.9844 L284.6748,796.6094 L276.6748,796.6094 Q276.0498,796.6094 275.7842,796.375 Q275.5342,796.1406 275.5342,795.75 Q275.5342,795.375 275.7998,795.1406 Q276.0654,794.9063 276.6748,794.9063 L276.9404,794.9063 L276.9404,788.25 L276.6748,788.25 Q276.0498,788.25 275.7842,788.0156 Q275.5342,787.7813 275.5342,787.3906 Q275.5342,787.0156 275.7842,786.7813 Q276.0498,786.5469 276.6748,786.5469 L284.2998,786.5469 L284.2998,789.1406 Q284.2998,789.75 284.0654,790.0156 Q283.8467,790.2656 283.4561,790.2656 Q283.0811,790.2656 282.8467,790.0156 Q282.6123,789.75 282.6123,789.1406 L282.6123,788.25 L278.6436,788.25 L278.6436,790.7031 L280.1279,790.7031 Q280.1279,790.0469 280.2529,789.8594 Q280.5186,789.4531 280.9873,789.4531 Q281.3623,789.4531 281.5967,789.7188 Q281.8311,789.9688 281.8311,790.5781 L281.8311,792.5469 Q281.8311,793.0938 281.7061,793.2813 Q281.4404,793.6719 280.9873,793.6719 Q280.5186,793.6719 280.2529,793.2656 Q280.1279,793.0781 280.1279,792.4063 L278.6436,792.4063 Z " fill="#000000"/><text fill="#000000" font-family="sans-serif" font-size="14" lengthAdjust="spacing" textLength="35.7998" x="300.2842" y="797.3379">Event</text><line style="stroke:#181818;stroke-width:0.5;" x1="198.5" x2="405.3682" y1="807.6094" y2="807.6094"/><text fill="#000000" font-family="sans-serif" font-size="14" lengthAdjust="spacing" textLength="70.0273" x="203.5" y="826.1426">title : String</text><text fill="#000000" font-family="sans-serif" font-size="14" lengthAdjust="spacing" textLength="106.5996" x="203.5" y="843.752">description : Text</text><text fill="#000000" font-family="sans-serif" font-size="14" lengthAdjust="spacing" textLength="157.9717" x="203.5" y="861.3613">category : EventCategory</text><text fill="#000000" font-family="sans-serif" font-size="14" lengthAdjust="spacing" textLength="129.1514" x="203.5" y="878.9707">startDate : DateTime</text><text fill="#000000" font-family="sans-serif" font-size="14" lengthAdjust="spacing" textLength="125.2822" x="203.5" y="896.5801">endDate : DateTime</text><text fill="#000000" font-family="sans-serif" font-size="14" lengthAdjust="spacing" textLength="78.5928" x="203.5" y="914.1895">capacity : Int</text><text fill="#000000" font-family="sans-serif" font-size="14" lengthAdjust="spacing" textLength="124.5098" x="203.5" y="931.7988">status : EventStatus</text><text fill="#000000" font-family="sans-serif" font-size="14" lengthAdjust="spacing" textLength="132.2754" x="203.5" y="949.4082">createdAt : DateTime</text><text fill="#000000" font-family="sans-serif" font-size="14" lengthAdjust="spacing" textLength="136.1855" x="203.5" y="967.0176">updatedAt : DateTime</text><line style="stroke:#181818;stroke-width:0.5;" x1="198.5" x2="405.3682" y1="974.0938" y2="974.0938"/><text fill="#000000" font-family="sans-serif" font-size="14" lengthAdjust="spacing" textLength="91.0273" x="203.5" y="992.627">id : String (PK)</text><text fill="#000000" font-family="sans-serif" font-size="14" lengthAdjust="spacing" textLength="165.7305" x="203.5" y="1010.2363">imageUrl : String (nullable)</text><text fill="#000000" font-family="sans-serif" font-size="14" lengthAdjust="spacing" textLength="196.8682" x="203.5" y="1027.8457">speakerId : String (FK, nullable)</text><text fill="#000000" font-family="sans-serif" font-size="14" lengthAdjust="spacing" textLength="185.2061" x="203.5" y="1045.4551">venueId : String (FK, nullable)</text></g><!--class Registration--><g class="entity" data-entity="Registration" data-source-line="57" data-uid="ent0006" id="entity_Registration"><rect fill="#F1F1F1" height="153.6563" rx="2.5" ry="2.5" style="stroke:#181818;stroke-width:0.5;" width="175.4131" x="221.5" y="45.6094"/><ellipse cx="267.605" cy="61.6094" fill="#ADD1B2" rx="11" ry="11" style="stroke:#181818;stroke-width:1;"/><path d="M266.4644,62.4063 L266.4644,64.9063 L270.7925,64.9063 L270.7925,63.9844 Q270.7925,63.375 271.0269,63.1094 Q271.2769,62.8438 271.6519,62.8438 Q272.0269,62.8438 272.2612,63.1094 Q272.4956,63.375 272.4956,63.9844 L272.4956,66.6094 L264.4956,66.6094 Q263.8706,66.6094 263.605,66.375 Q263.355,66.1406 263.355,65.75 Q263.355,65.375 263.6206,65.1406 Q263.8862,64.9063 264.4956,64.9063 L264.7612,64.9063 L264.7612,58.25 L264.4956,58.25 Q263.8706,58.25 263.605,58.0156 Q263.355,57.7813 263.355,57.3906 Q263.355,57.0156 263.605,56.7813 Q263.8706,56.5469 264.4956,56.5469 L272.1206,56.5469 L272.1206,59.1406 Q272.1206,59.75 271.8862,60.0156 Q271.6675,60.2656 271.2769,60.2656 Q270.9019,60.2656 270.6675,60.0156 Q270.4331,59.75 270.4331,59.1406 L270.4331,58.25 L266.4644,58.25 L266.4644,60.7031 L267.9487,60.7031 Q267.9487,60.0469 268.0737,59.8594 Q268.3394,59.4531 268.8081,59.4531 Q269.1831,59.4531 269.4175,59.7188 Q269.6519,59.9688 269.6519,60.5781 L269.6519,62.5469 Q269.6519,63.0938 269.5269,63.2813 Q269.2612,63.6719 268.8081,63.6719 Q268.3394,63.6719 268.0737,63.2656 Q267.9487,63.0781 267.9487,62.4063 L266.4644,62.4063 Z " fill="#000000"/><text fill="#000000" font-family="sans-serif" font-size="14" lengthAdjust="spacing" textLength="74.7031" x="288.105" y="67.3379">Registration</text><line style="stroke:#181818;stroke-width:0.5;" x1="222.5" x2="395.9131" y1="77.6094" y2="77.6094"/><text fill="#000000" font-family="sans-serif" font-size="14" lengthAdjust="spacing" textLength="163.4131" x="227.5" y="96.1426">status : RegistrationStatus</text><text fill="#000000" font-family="sans-serif" font-size="14" lengthAdjust="spacing" textLength="147.834" x="227.5" y="113.752">registeredAt : DateTime</text><line style="stroke:#181818;stroke-width:0.5;" x1="222.5" x2="395.9131" y1="120.8281" y2="120.8281"/><text fill="#000000" font-family="sans-serif" font-size="14" lengthAdjust="spacing" textLength="91.0273" x="227.5" y="139.3613">id : String (PK)</text><text fill="#000000" font-family="sans-serif" font-size="14" lengthAdjust="spacing" textLength="118.2549" x="227.5" y="156.9707">userId : String (FK)</text><text fill="#000000" font-family="sans-serif" font-size="14" lengthAdjust="spacing" textLength="125.2686" x="227.5" y="174.5801">eventId : String (FK)</text><text fill="#000000" font-family="sans-serif" font-size="14" lengthAdjust="spacing" textLength="128.3721" x="227.5" y="192.1895">qrCode : String (UQ)</text></g><!--class CheckIn--><g class="entity" data-entity="CheckIn" data-source-line="66" data-uid="ent0007" id="entity_CheckIn"><rect fill="#F1F1F1" height="136.0469" rx="2.5" ry="2.5" style="stroke:#181818;stroke-width:0.5;" width="168.4199" x="73" y="561.6094"/><ellipse cx="127.2808" cy="577.6094" fill="#ADD1B2" rx="11" ry="11" style="stroke:#181818;stroke-width:1;"/><path d="M126.1401,578.4063 L126.1401,580.9063 L130.4683,580.9063 L130.4683,579.9844 Q130.4683,579.375 130.7026,579.1094 Q130.9526,578.8438 131.3276,578.8438 Q131.7026,578.8438 131.937,579.1094 Q132.1714,579.375 132.1714,579.9844 L132.1714,582.6094 L124.1714,582.6094 Q123.5464,582.6094 123.2808,582.375 Q123.0308,582.1406 123.0308,581.75 Q123.0308,581.375 123.2964,581.1406 Q123.562,580.9063 124.1714,580.9063 L124.437,580.9063 L124.437,574.25 L124.1714,574.25 Q123.5464,574.25 123.2808,574.0156 Q123.0308,573.7813 123.0308,573.3906 Q123.0308,573.0156 123.2808,572.7813 Q123.5464,572.5469 124.1714,572.5469 L131.7964,572.5469 L131.7964,575.1406 Q131.7964,575.75 131.562,576.0156 Q131.3433,576.2656 130.9526,576.2656 Q130.5776,576.2656 130.3433,576.0156 Q130.1089,575.75 130.1089,575.1406 L130.1089,574.25 L126.1401,574.25 L126.1401,576.7031 L127.6245,576.7031 Q127.6245,576.0469 127.7495,575.8594 Q128.0151,575.4531 128.4839,575.4531 Q128.8589,575.4531 129.0933,575.7188 Q129.3276,575.9688 129.3276,576.5781 L129.3276,578.5469 Q129.3276,579.0938 129.2026,579.2813 Q128.937,579.6719 128.4839,579.6719 Q128.0151,579.6719 127.7495,579.2656 Q127.6245,579.0781 127.6245,578.4063 L126.1401,578.4063 Z " fill="#000000"/><text fill="#000000" font-family="sans-serif" font-size="14" lengthAdjust="spacing" textLength="51.3584" x="147.7808" y="583.3379">CheckIn</text><line style="stroke:#181818;stroke-width:0.5;" x1="74" x2="240.4199" y1="593.6094" y2="593.6094"/><text fill="#000000" font-family="sans-serif" font-size="14" lengthAdjust="spacing" textLength="156.4199" x="79" y="612.1426">method : CheckInMethod</text><text fill="#000000" font-family="sans-serif" font-size="14" lengthAdjust="spacing" textLength="149.3994" x="79" y="629.752">checkedInAt : DateTime</text><line style="stroke:#181818;stroke-width:0.5;" x1="74" x2="240.4199" y1="636.8281" y2="636.8281"/><text fill="#000000" font-family="sans-serif" font-size="14" lengthAdjust="spacing" textLength="91.0273" x="79" y="655.3613">id : String (PK)</text><text fill="#000000" font-family="sans-serif" font-size="14" lengthAdjust="spacing" textLength="118.2549" x="79" y="672.9707">userId : String (FK)</text><text fill="#000000" font-family="sans-serif" font-size="14" lengthAdjust="spacing" textLength="125.2686" x="79" y="690.5801">eventId : String (FK)</text></g><g class="entity" data-entity="GMN20" data-source-line="92" data-uid="ent0021" id="entity_GMN20"><path d="M431.5,101.1094 L431.5,118.6094 L396.54,122.6094 L431.5,126.6094 L431.5,143.8125 A0,0 0 0 0 431.5,143.8125 L632.437,143.8125 A0,0 0 0 0 632.437,143.8125 L632.437,111.1094 L622.437,101.1094 L431.5,101.1094 A0,0 0 0 0 431.5,101.1094" fill="#FEFFDD" style="stroke:#181818;stroke-width:0.5;"/><path d="M622.437,101.1094 L622.437,111.1094 L632.437,111.1094 L622.437,101.1094" fill="#FEFFDD" style="stroke:#181818;stroke-width:0.5;"/><text fill="#000000" font-family="sans-serif" font-size="13" lengthAdjust="spacing" textLength="160.0879" x="437.5" y="119.6045">@@unique(userId, eventId)</text><text fill="#000000" font-family="sans-serif" font-size="13" lengthAdjust="spacing" textLength="179.937" x="437.5" y="135.9561">indexes: userId, eventId, status</text></g><g class="entity" data-entity="GMN23" data-source-line="97" data-uid="ent0024" id="entity_GMN23"><path d="M617,608.1094 L617,650.8125 L811.4434,650.8125 L811.4434,618.1094 L801.4434,608.1094 L617,608.1094" fill="#FEFFDD" style="stroke:#181818;stroke-width:0.5;"/><path d="M801.4434,608.1094 L801.4434,618.1094 L811.4434,618.1094 L801.4434,608.1094" fill="#FEFFDD" style="stroke:#181818;stroke-width:1;"/><text fill="#000000" font-family="sans-serif" font-size="13" lengthAdjust="spacing" textLength="160.0879" x="623" y="626.6045">@@unique(userId, eventId)</text><text fill="#000000" font-family="sans-serif" font-size="13" lengthAdjust="spacing" textLength="173.4434" x="623" y="642.9561">indexes: eventId, checkedInAt</text></g><g class="entity" data-entity="GMN26" data-source-line="102" data-uid="ent0027" id="entity_GMN26"><path d="M461.5,892.6094 L461.5,935.3125 L966.623,935.3125 L966.623,902.6094 L956.623,892.6094 L461.5,892.6094" fill="#FEFFDD" style="stroke:#181818;stroke-width:0.5;"/><path d="M956.623,892.6094 L956.623,902.6094 L966.623,902.6094 L956.623,892.6094" fill="#FEFFDD" style="stroke:#181818;stroke-width:1;"/><text fill="#000000" font-family="sans-serif" font-size="13" lengthAdjust="spacing" textLength="484.123" x="467.5" y="911.1045">Enums: UserRole, EventStatus, EventCategory, RegistrationStatus, CheckInMethod</text><text fill="#000000" font-family="sans-serif" font-size="13" lengthAdjust="spacing" textLength="221.0825" x="467.5" y="927.4561">See prisma/schema.prisma for details.</text></g><!--link Registration to User--><g class="link" data-entity-1="Registration" data-entity-2="User" data-source-line="75" data-uid="lnk8" id="link_Registration_User"><path codeLine="75" d="M203.6547,139.9297 C146.9647,152.9197 94.85,175.4694 59,229.6094 C49.34,244.1994 46.2768,252.9116 49.2268,269.5916" fill="none" id="Registration-User" style="stroke:#181818;stroke-width:1;"/><line style="stroke:#181818;stroke-width:1;" x1="213.4021" x2="219.8599" y1="137.6962" y2="130.0609"/><line style="stroke:#181818;stroke-width:1;" x1="213.4021" x2="222.5401" y1="137.6962" y2="141.7578"/><line style="stroke:#181818;stroke-width:1;" x1="213.4021" x2="221.2" y1="137.6962" y2="135.9094"/><ellipse cx="207.5537" cy="139.0363" fill="none" rx="4" ry="4" style="stroke:#181818;stroke-width:1;"/><line style="stroke:#181818;stroke-width:1;" x1="53.8622" x2="45.9845" y1="272.8339" y2="274.2271"/><line style="stroke:#181818;stroke-width:1;" x1="53.3398" x2="45.462" y1="269.8797" y2="271.273"/><line style="stroke:#181818;stroke-width:1;" x1="49.2268" x2="50.62" y1="269.5916" y2="277.4694"/><text fill="#000000" font-family="sans-serif" font-size="13" lengthAdjust="spacing" textLength="158.9707" x="60" y="244.1045">userId (onDelete: Cascade)</text></g><!--link User to Registration--><g class="link" data-entity-1="User" data-entity-2="Registration" data-source-line="83" data-uid="lnk14" id="link_User_Registration"><path codeLine="83" d="M204.4706,271.1552 C212.5706,261.2052 215.49,257.3794 223,247.6094 C234.65,232.4394 236.319,230.5795 247.519,214.5995" fill="none" id="User-Registration" style="stroke:#181818;stroke-width:1;"/><line style="stroke:#181818;stroke-width:1;" x1="205.0474" x2="198.8432" y1="276.7826" y2="271.732"/><line style="stroke:#181818;stroke-width:1;" x1="206.9414" x2="200.7372" y1="274.4561" y2="269.4054"/><line style="stroke:#181818;stroke-width:1;" x1="204.4706" x2="199.42" y1="271.1552" y2="277.3594"/><line style="stroke:#181818;stroke-width:1;" x1="253.2585" x2="252.9366" y1="206.4105" y2="196.4157"/><line style="stroke:#181818;stroke-width:1;" x1="253.2585" x2="262.7634" y1="206.4105" y2="203.303"/><line style="stroke:#181818;stroke-width:1;" x1="253.2585" x2="257.85" y1="206.4105" y2="199.8594"/><ellipse cx="249.8148" cy="211.3239" fill="none" rx="4" ry="4" style="stroke:#181818;stroke-width:1;"/><text fill="#000000" font-family="sans-serif" font-size="13" lengthAdjust="spacing" textLength="70.8081" x="236" y="244.1045">registrations</text></g><!--link Registration to Event--><g class="link" data-entity-1="Registration" data-entity-2="Event" data-source-line="76" data-uid="lnk9" id="link_Registration_Event"><path codeLine="76" d="M314.6896,217.7088 C315.1696,227.7488 314.73,219.9394 315,229.6094 C315.23,237.6094 315.04,239.6094 315,247.6094 C313.89,468.9494 316.39,524.3594 310,745.6094 C309.72,755.3594 309.6696,757.425 309.2896,767.565" fill="none" id="Registration-Event" style="stroke:#181818;stroke-width:1;"/><line style="stroke:#181818;stroke-width:1;" x1="314.212" x2="307.8368" y1="207.7202" y2="200.0159"/><line style="stroke:#181818;stroke-width:1;" x1="314.212" x2="319.8232" y1="207.7202" y2="199.4428"/><line style="stroke:#181818;stroke-width:1;" x1="314.212" x2="313.83" y1="207.7202" y2="199.7294"/><ellipse cx="314.4986" cy="213.7134" fill="none" rx="4" ry="4" style="stroke:#181818;stroke-width:1;"/><line style="stroke:#181818;stroke-width:1;" x1="313.137" x2="305.1426" y1="771.712" y2="771.4124"/><line style="stroke:#181818;stroke-width:1;" x1="313.2493" x2="305.2549" y1="768.7141" y2="768.4145"/><line style="stroke:#181818;stroke-width:1;" x1="309.2896" x2="308.99" y1="767.565" y2="775.5594"/><text fill="#000000" font-family="sans-serif" font-size="13" lengthAdjust="spacing" textLength="165.4834" x="315" y="528.1045">eventId (onDelete: Cascade)</text></g><!--link Event to Registration--><g class="link" data-entity-1="Event" data-entity-2="Registration" data-source-line="84" data-uid="lnk15" id="link_Event_Registration"><path codeLine="84" d="M392.4382,768.3078 C431.4282,698.1978 469.21,616.9394 489,531.6094 C517.2,409.9994 449.5219,293.9092 387.3719,214.1292" fill="none" id="Event-Registration" style="stroke:#181818;stroke-width:1;"/><line style="stroke:#181818;stroke-width:1;" x1="393.9899" x2="386.9983" y1="773.7477" y2="769.8595"/><line style="stroke:#181818;stroke-width:1;" x1="395.4479" x2="388.4564" y1="771.1259" y2="767.2377"/><line style="stroke:#181818;stroke-width:1;" x1="392.4382" x2="388.55" y1="768.3078" y2="775.2994"/><line style="stroke:#181818;stroke-width:1;" x1="381.2264" x2="371.5767" y1="206.2404" y2="203.6167"/><line style="stroke:#181818;stroke-width:1;" x1="381.2264" x2="381.0433" y1="206.2404" y2="196.2421"/><line style="stroke:#181818;stroke-width:1;" x1="381.2264" x2="376.31" y1="206.2404" y2="199.9294"/><ellipse cx="384.9137" cy="210.9737" fill="none" rx="4" ry="4" style="stroke:#181818;stroke-width:1;"/><text fill="#000000" font-family="sans-serif" font-size="13" lengthAdjust="spacing" textLength="70.8081" x="493" y="528.1045">registrations</text></g><!--link CheckIn to User--><g class="link" data-entity-1="CheckIn" data-entity-2="User" data-source-line="77" data-uid="lnk10" id="link_CheckIn_User"><path codeLine="77" d="M141.1725,543.644 C136.7225,519.764 136.3752,517.8641 131.5052,491.7241" fill="none" id="CheckIn-User" style="stroke:#181818;stroke-width:1;"/><line style="stroke:#181818;stroke-width:1;" x1="143.0044" x2="150.3685" y1="553.4748" y2="560.2402"/><line style="stroke:#181818;stroke-width:1;" x1="143.0044" x2="138.5715" y1="553.4748" y2="562.4385"/><line style="stroke:#181818;stroke-width:1;" x1="143.0044" x2="144.47" y1="553.4748" y2="561.3394"/><ellipse cx="141.9053" cy="547.5763" fill="none" rx="4" ry="4" style="stroke:#181818;stroke-width:1;"/><line style="stroke:#181818;stroke-width:1;" x1="126.8403" x2="134.7049" y1="488.5243" y2="487.0591"/><line style="stroke:#181818;stroke-width:1;" x1="127.3897" x2="135.2544" y1="491.4736" y2="490.0084"/><line style="stroke:#181818;stroke-width:1;" x1="131.5052" x2="130.04" y1="491.7241" y2="483.8594"/><text fill="#000000" font-family="sans-serif" font-size="13" lengthAdjust="spacing" textLength="158.9707" x="139" y="528.1045">userId (onDelete: Cascade)</text></g><!--link User to CheckIn--><g class="link" data-entity-1="User" data-entity-2="CheckIn" data-source-line="85" data-uid="lnk16" id="link_User_CheckIn"><path codeLine="85" d="M70.4244,491.7824 C68.6644,507.9524 70.48,516.3994 76,531.6094 C79.78,542.0294 75.261,537.1154 81.551,546.5854" fill="none" id="User-CheckIn" style="stroke:#181818;stroke-width:1;"/><line style="stroke:#181818;stroke-width:1;" x1="66.8807" x2="74.8337" y1="487.3731" y2="488.2387"/><line style="stroke:#181818;stroke-width:1;" x1="66.5561" x2="74.5091" y1="490.3555" y2="491.2211"/><line style="stroke:#181818;stroke-width:1;" x1="70.4244" x2="71.29" y1="491.7824" y2="483.8294"/><line style="stroke:#181818;stroke-width:1;" x1="87.0838" x2="96.508" y1="554.9154" y2="558.2597"/><line style="stroke:#181818;stroke-width:1;" x1="87.0838" x2="86.512" y1="554.9154" y2="564.899"/><line style="stroke:#181818;stroke-width:1;" x1="87.0838" x2="91.51" y1="554.9154" y2="561.5794"/><ellipse cx="83.7641" cy="549.9174" fill="none" rx="4" ry="4" style="stroke:#181818;stroke-width:1;"/><text fill="#000000" font-family="sans-serif" font-size="13" lengthAdjust="spacing" textLength="50.5781" x="77" y="528.1045">checkins</text></g><!--link CheckIn to Event--><g class="link" data-entity-1="CheckIn" data-entity-2="Event" data-source-line="78" data-uid="lnk11" id="link_CheckIn_Event"><path codeLine="78" d="M67.0458,713.2101 C57.8758,728.3301 63.72,729.3494 72,745.6094 C98.6,797.8894 143.0981,833.6813 190.5781,861.3513" fill="none" id="CheckIn-Event" style="stroke:#181818;stroke-width:1;"/><line style="stroke:#181818;stroke-width:1;" x1="72.2315" x2="71.2498" y1="704.6597" y2="694.708"/><line style="stroke:#181818;stroke-width:1;" x1="72.2315" x2="81.5102" y1="704.6597" y2="700.9308"/><line style="stroke:#181818;stroke-width:1;" x1="72.2315" x2="76.38" y1="704.6597" y2="697.8194"/><ellipse cx="69.1201" cy="709.7899" fill="none" rx="4" ry="4" style="stroke:#181818;stroke-width:1;"/><line style="stroke:#181818;stroke-width:1;" x1="196.0481" x2="192.02" y1="859.9094" y2="866.8213"/><line style="stroke:#181818;stroke-width:1;" x1="193.4561" x2="189.428" y1="858.3989" y2="865.3108"/><line style="stroke:#181818;stroke-width:1;" x1="190.5781" x2="197.49" y1="861.3513" y2="865.3794"/><text fill="#000000" font-family="sans-serif" font-size="13" lengthAdjust="spacing" textLength="165.4834" x="73" y="742.1045">eventId (onDelete: Cascade)</text></g><!--link Event to CheckIn--><g class="link" data-entity-1="Event" data-entity-2="CheckIn" data-source-line="86" data-uid="lnk17" id="link_Event_CheckIn"><path codeLine="86" d="M262.56,768.1374 C256.07,751.5174 251.51,742.5994 243,727.6094 C237.22,717.4294 241.3207,721.5745 233.8607,712.0245" fill="none" id="Event-CheckIn" style="stroke:#181818;stroke-width:1;"/><line style="stroke:#181818;stroke-width:1;" x1="267.741" x2="260.289" y1="770.4084" y2="773.3184"/><line style="stroke:#181818;stroke-width:1;" x1="266.6498" x2="259.1978" y1="767.6139" y2="770.5239"/><line style="stroke:#181818;stroke-width:1;" x1="262.56" x2="265.47" y1="768.1374" y2="775.5894"/><line style="stroke:#181818;stroke-width:1;" x1="227.7048" x2="218.0516" y1="704.1439" y2="701.533"/><line style="stroke:#181818;stroke-width:1;" x1="227.7048" x2="227.5084" y1="704.1439" y2="694.1458"/><line style="stroke:#181818;stroke-width:1;" x1="227.7048" x2="222.78" y1="704.1439" y2="697.8394"/><ellipse cx="231.3983" cy="708.8722" fill="none" rx="4" ry="4" style="stroke:#181818;stroke-width:1;"/><text fill="#000000" font-family="sans-serif" font-size="13" lengthAdjust="spacing" textLength="50.5781" x="251" y="742.1045">checkins</text></g><!--link Event to Speaker--><g class="link" data-entity-1="Event" data-entity-2="Speaker" data-source-line="80" data-uid="lnk12" id="link_Event_Speaker"><path codeLine="80" d="M181.1576,962.6217 C125.7676,989.6017 78.94,1023.4094 47,1082.6094 C29.69,1114.6894 41.3311,1141.1446 68.0611,1168.0446" fill="none" id="Event-Speaker" style="stroke:#181818;stroke-width:1;"/><line style="stroke:#181818;stroke-width:1;" x1="190.1478" x2="194.7126" y1="958.2426" y2="949.3452"/><line style="stroke:#181818;stroke-width:1;" x1="190.1478" x2="199.9674" y1="958.2426" y2="960.1335"/><line style="stroke:#181818;stroke-width:1;" x1="190.1478" x2="197.34" y1="958.2426" y2="954.7394"/><ellipse cx="184.7537" cy="960.8701" fill="none" rx="4" ry="4" style="stroke:#181818;stroke-width:1;"/><line style="stroke:#181818;stroke-width:1;" x1="73.7179" x2="68.0432" y1="1168.0625" y2="1173.7014"/><line style="stroke:#181818;stroke-width:1;" x1="71.6033" x2="65.9286" y1="1165.9345" y2="1171.5734"/><line style="stroke:#181818;stroke-width:1;" x1="68.0611" x2="73.7" y1="1168.0446" y2="1173.7194"/><text fill="#000000" font-family="sans-serif" font-size="13" lengthAdjust="spacing" textLength="170.5298" x="48" y="1097.1045">speakerId (onDelete: SetNull)</text></g><!--link Speaker to Event--><g class="link" data-entity-1="Speaker" data-entity-2="Event" data-source-line="88" data-uid="lnk18" id="link_Speaker_Event"><path codeLine="88" d="M219.8388,1123.0487 C229.7288,1098.0087 230.7962,1095.3403 241.0562,1069.3703" fill="none" id="Speaker-Event" style="stroke:#181818;stroke-width:1;"/><line style="stroke:#181818;stroke-width:1;" x1="222.0897" x2="214.6491" y1="1128.2385" y2="1125.2996"/><line style="stroke:#181818;stroke-width:1;" x1="223.1918" x2="215.7511" y1="1125.4482" y2="1122.5094"/><line style="stroke:#181818;stroke-width:1;" x1="219.8388" x2="216.9" y1="1123.0487" y2="1130.4894"/><line style="stroke:#181818;stroke-width:1;" x1="244.7305" x2="242.0897" y1="1060.0698" y2="1050.4248"/><line style="stroke:#181818;stroke-width:1;" x1="244.7305" x2="253.2503" y1="1060.0698" y2="1054.834"/><line style="stroke:#181818;stroke-width:1;" x1="244.7305" x2="247.67" y1="1060.0698" y2="1052.6294"/><ellipse cx="242.5259" cy="1065.6501" fill="none" rx="4" ry="4" style="stroke:#181818;stroke-width:1;"/><text fill="#000000" font-family="sans-serif" font-size="13" lengthAdjust="spacing" textLength="38.3018" x="234" y="1097.1045">events</text></g><!--link Event to Venue--><g class="link" data-entity-1="Event" data-entity-2="Venue" data-source-line="81" data-uid="lnk13" id="link_Event_Venue"><path codeLine="81" d="M328.064,1070.4833 C332.364,1086.7733 332.9,1085.5394 339,1100.6094 C345.46,1116.5394 349.7259,1125.7168 358.6959,1141.0268" fill="none" id="Event-Venue" style="stroke:#181818;stroke-width:1;"/><line style="stroke:#181818;stroke-width:1;" x1="325.5118" x2="317.6687" y1="1060.8144" y2="1054.6107"/><line style="stroke:#181818;stroke-width:1;" x1="325.5118" x2="329.2713" y1="1060.8144" y2="1051.548"/><line style="stroke:#181818;stroke-width:1;" x1="325.5118" x2="323.47" y1="1060.8144" y2="1053.0794"/><ellipse cx="327.0431" cy="1066.6157" fill="none" rx="4" ry="4" style="stroke:#181818;stroke-width:1;"/><line style="stroke:#181818;stroke-width:1;" x1="364.1692" x2="357.2667" y1="1142.456" y2="1146.5002"/><line style="stroke:#181818;stroke-width:1;" x1="362.6526" x2="355.7501" y1="1139.8676" y2="1143.9117"/><line style="stroke:#181818;stroke-width:1;" x1="358.6959" x2="362.74" y1="1141.0268" y2="1147.9294"/><text fill="#000000" font-family="sans-serif" font-size="13" lengthAdjust="spacing" textLength="159.7007" x="340" y="1097.1045">venueId (onDelete: SetNull)</text></g><!--link Venue to Event--><g class="link" data-entity-1="Venue" data-entity-2="Event" data-source-line="89" data-uid="lnk19" id="link_Venue_Event"><path codeLine="89" d="M508.4002,1140.6378 C517.5002,1118.6578 516.65,1103.0694 504,1082.6094 C488.33,1057.2494 468.33,1069.8494 444,1052.6094 C431.4,1043.6794 432.4653,1045.4016 420.3253,1034.9216" fill="none" id="Venue-Event" style="stroke:#181818;stroke-width:1;"/><line style="stroke:#181818;stroke-width:1;" x1="510.5659" x2="503.1743" y1="1145.8637" y2="1142.8035"/><line style="stroke:#181818;stroke-width:1;" x1="511.7135" x2="504.3219" y1="1143.0919" y2="1140.0317"/><line style="stroke:#181818;stroke-width:1;" x1="508.4002" x2="505.34" y1="1140.6378" y2="1148.0294"/><line style="stroke:#181818;stroke-width:1;" x1="412.7557" x2="402.7793" y1="1028.387" y2="1027.7012"/><line style="stroke:#181818;stroke-width:1;" x1="412.7557" x2="410.6207" y1="1028.387" y2="1018.6176"/><line style="stroke:#181818;stroke-width:1;" x1="412.7557" x2="406.7" y1="1028.387" y2="1023.1594"/><ellipse cx="417.2975" cy="1032.3078" fill="none" rx="4" ry="4" style="stroke:#181818;stroke-width:1;"/><text fill="#000000" font-family="sans-serif" font-size="13" lengthAdjust="spacing" textLength="38.3018" x="511" y="1097.1045">events</text></g><!--link CheckIn to GMN23--><g class="link" data-entity-1="CheckIn" data-entity-2="GMN23" data-source-line="97" data-uid="lnk25" id="link_CheckIn_GMN23"><path d="M241.04,629.6094 C366.21,629.6094 491.38,629.6094 616.54,629.6094" fill="none" id="CheckIn-GMN23" style="stroke:#181818;stroke-width:1;stroke-dasharray:7,7;"/></g><!--link GMN23 to GMN26--><g class="link" data-entity-1="GMN23" data-entity-2="GMN26" data-source-line="102" data-uid="lnk28" id="link_GMN23_GMN26"><path d="M714,651.3794 C714,703.6294 714,840.0294 714,892.3094" fill="none" id="GMN23-GMN26" style="stroke:#181818;stroke-width:1;stroke-dasharray:7,7;"/></g><!--SRC=[hLPBJ-D03BxdLrXS02c5Uq-iU4XLnGeetSjg3zF4JKOaCs76AR2K_xwUFDeyTxk8M-onF_lps9wGf0JXIf1O2Okm269C1KpWUeEAu5Oe4M7Advvt33Tvae0jBI9KQ0HX26kZKyYCjAauBm_FIebHf0gIF4GBz9QXzU5kVhwy1w52qEeA4oG4fGcjvt48IM-mj6ZWtGEG8KnXGKQg24xkvgUiOcIPDBJBUwVDXBKlskpDMQT4YatPwCJ93lo1FrbZYTDID0jRU3uefYXM2JfacJBtnddpB33eo7yZFkVYuQDC7MoUXNtrnuxT8aFnD4wmc_PAQXOVyPNQmQcui-74j8c4ahy5IQr6JB9OarwQPEIuM-QEg_hQaln0bUEX1H5XQD3QfYeGcGWSq1HctAK0QnOJIHBtPZz_rRSvplfpsPTJCf9z-vfOmOCG69bLL-FkjI1066dZ21HebvLSDAamvAAsSq8LzfMzElo3BsDJRkkWYq9owh93MtDnCs_FnSPTsLyjFbVC1uoa9LEsxaXDSzjBhkZPJNUOI_sEPHDxH_RPNEeGUnl55BPenZEzZ35ucdrLaYbIh9swWhqjP5T69sCuKxqyZfbGKf2ny28ftg_J5SPY8xNnMjNyq9F9TbjkroaSLGcUr5uSMjX0X7XwDEXNjZaxrXG6FUkg_4UmZijXSRpIhFAfTofxxPktuRT0-iwjoNujjtBli5FTpOCkNa5YkvrCz7kxFzdJD6HRmnzcsuIjQy1MnONB7jYWXLSJhupQjME3ak7OgUVUNJ0oYWdqkfKlTzx5HQxaSuudvUNvTUyMpw8AyHNj53fdVZLjF2HXyQftOrGq3eNVmJR6e8kzqaGwPQzhbQTs_yBxpRNcjnUhFx0C_DxiBH27VshMsl0Y9tuZxTa-dJy0]--></g></svg>