<svg xmlns="http://www.w3.org/2000/svg" xmlns:xlink="http://www.w3.org/1999/xlink" contentStyleType="text/css" data-diagram-type="SEQUENCE" height="613px" preserveAspectRatio="none" style="width:733px;height:613px;background:#FFFFFF;" version="1.1" viewBox="0 0 733 613" width="733px" zoomAndPan="magnify"><title>Edit Event Activity</title><defs/><g><text fill="#000000" font-family="sans-serif" font-size="14" font-weight="bold" lengthAdjust="spacing" textLength="122.917" x="304.4182" y="29.5332">Edit Event Activity</text><g><title>Admin</title><rect fill="#000000" fill-opacity="0.00000" height="410.2188" width="8" x="23.8413" y="121.2188"/><line style="stroke:#181818;stroke-width:0.5;stroke-dasharray:5,5;" x1="27" x2="27" y1="121.2188" y2="531.4375"/></g><g><title>Edit Form .client.</title><rect fill="#000000" fill-opacity="0.00000" height="410.2188" width="8" x="193.0947" y="121.2188"/><line style="stroke:#181818;stroke-width:0.5;stroke-dasharray:5,5;" x1="196.8086" x2="196.8086" y1="121.2188" y2="531.4375"/></g><g><title>.api.events..id .PUT.</title><rect fill="#000000" fill-opacity="0.00000" height="410.2188" width="8" x="497.4644" y="121.2188"/><line style="stroke:#181818;stroke-width:0.5;stroke-dasharray:5,5;" x1="500.6646" x2="500.6646" y1="121.2188" y2="531.4375"/></g><g><title>Prisma . PostgreSQL</title><rect fill="#000000" fill-opacity="0.00000" height="410.2188" width="8" x="651.0088" y="121.2188"/><line style="stroke:#181818;stroke-width:0.5;stroke-dasharray:5,5;" x1="654.2642" x2="654.2642" y1="121.2188" y2="531.4375"/></g><g class="participant participant-head" data-participant="Admin"><text fill="#000000" font-family="sans-serif" font-size="14" lengthAdjust="spacing" textLength="39.6826" x="5" y="118.1426">Admin</text><ellipse cx="27.8413" cy="52.1094" fill="#E2E2F0" rx="8" ry="8" style="stroke:#181818;stroke-width:0.5;"/><path d="M27.8413,60.1094 L27.8413,87.1094 M14.8413,68.1094 L40.8413,68.1094 M27.8413,87.1094 L14.8413,102.1094 M27.8413,87.1094 L40.8413,102.1094" fill="none" style="stroke:#181818;stroke-width:0.5;"/></g><g class="participant participant-tail" data-participant="Admin"><text fill="#000000" font-family="sans-serif" font-size="14" lengthAdjust="spacing" textLength="39.6826" x="5" y="544.9707">Admin</text><ellipse cx="27.8413" cy="556.5469" fill="#E2E2F0" rx="8" ry="8" style="stroke:#181818;stroke-width:0.5;"/><path d="M27.8413,564.5469 L27.8413,591.5469 M14.8413,572.5469 L40.8413,572.5469 M27.8413,591.5469 L14.8413,606.5469 M27.8413,591.5469 L40.8413,606.5469" fill="none" style="stroke:#181818;stroke-width:0.5;"/></g><g class="participant participant-head" data-participant="Client"><rect fill="#E2E2F0" height="31.6094" rx="2.5" ry="2.5" style="stroke:#181818;stroke-width:0.5;" width="120.5723" x="136.8086" y="88.6094"/><text fill="#000000" font-family="sans-serif" font-size="14" lengthAdjust="spacing" textLength="106.5723" x="143.8086" y="110.1426">Edit Form (client)</text></g><g class="participant participant-tail" data-participant="Client"><rect fill="#E2E2F0" height="31.6094" rx="2.5" ry="2.5" style="stroke:#181818;stroke-width:0.5;" width="120.5723" x="136.8086" y="530.4375"/><text fill="#000000" font-family="sans-serif" font-size="14" lengthAdjust="spacing" textLength="106.5723" x="143.8086" y="551.9707">Edit Form (client)</text></g><g class="participant participant-head" data-participant="API"><rect fill="#E2E2F0" height="31.6094" rx="2.5" ry="2.5" style="stroke:#181818;stroke-width:0.5;" width="141.5996" x="430.6646" y="88.6094"/><text fill="#000000" font-family="sans-serif" font-size="14" lengthAdjust="spacing" textLength="127.5996" x="437.6646" y="110.1426">/api/events/:id (PUT)</text></g><g class="participant participant-tail" data-participant="API"><rect fill="#E2E2F0" height="31.6094" rx="2.5" ry="2.5" style="stroke:#181818;stroke-width:0.5;" width="141.5996" x="430.6646" y="530.4375"/><text fill="#000000" font-family="sans-serif" font-size="14" lengthAdjust="spacing" textLength="127.5996" x="437.6646" y="551.9707">/api/events/:id (PUT)</text></g><g class="participant participant-head" data-participant="DB"><rect fill="#E2E2F0" height="31.6094" rx="2.5" ry="2.5" style="stroke:#181818;stroke-width:0.5;" width="145.4893" x="582.2642" y="88.6094"/><text fill="#000000" font-family="sans-serif" font-size="14" lengthAdjust="spacing" textLength="131.4893" x="589.2642" y="110.1426">Prisma / PostgreSQL</text></g><g class="participant participant-tail" data-participant="DB"><rect fill="#E2E2F0" height="31.6094" rx="2.5" ry="2.5" style="stroke:#181818;stroke-width:0.5;" width="145.4893" x="582.2642" y="530.4375"/><text fill="#000000" font-family="sans-serif" font-size="14" lengthAdjust="spacing" textLength="131.4893" x="589.2642" y="551.9707">Prisma / PostgreSQL</text></g><g class="message" data-participant-1="Admin" data-participant-2="Client"><polygon fill="#181818" points="185.0947,149.5703,195.0947,153.5703,185.0947,157.5703,189.0947,153.5703" style="stroke:#181818;stroke-width:1;"/><line style="stroke:#181818;stroke-width:1;" x1="27.8413" x2="191.0947" y1="153.5703" y2="153.5703"/><text fill="#000000" font-family="sans-serif" font-size="13" lengthAdjust="spacing" textLength="90.3462" x="34.8413" y="148.7139">Open Edit page</text></g><g class="message" data-participant-1="Client" data-participant-2="API"><polygon fill="#181818" points="489.4644,179.9219,499.4644,183.9219,489.4644,187.9219,493.4644,183.9219" style="stroke:#181818;stroke-width:1;"/><line style="stroke:#181818;stroke-width:1;" x1="197.0947" x2="495.4644" y1="183.9219" y2="183.9219"/><text fill="#000000" font-family="sans-serif" font-size="13" lengthAdjust="spacing" textLength="153.8862" x="204.0947" y="179.0654">GET /api/events/:id (prefill)</text></g><g class="message" data-participant-1="API" data-participant-2="DB"><polygon fill="#181818" points="643.0088,210.2734,653.0088,214.2734,643.0088,218.2734,647.0088,214.2734" style="stroke:#181818;stroke-width:1;"/><line style="stroke:#181818;stroke-width:1;" x1="501.4644" x2="649.0088" y1="214.2734" y2="214.2734"/><text fill="#000000" font-family="sans-serif" font-size="13" lengthAdjust="spacing" textLength="85.9854" x="508.4644" y="209.417">SELECT event</text></g><g class="message" data-participant-1="DB" data-participant-2="API"><polygon fill="#181818" points="512.4644,240.625,502.4644,244.625,512.4644,248.625,508.4644,244.625" style="stroke:#181818;stroke-width:1;"/><line style="stroke:#181818;stroke-width:1;stroke-dasharray:2,2;" x1="506.4644" x2="654.0088" y1="244.625" y2="244.625"/><text fill="#000000" font-family="sans-serif" font-size="13" lengthAdjust="spacing" textLength="60.7153" x="518.4644" y="239.7686">event data</text></g><g class="message" data-participant-1="API" data-participant-2="Client"><polygon fill="#181818" points="208.0947,270.9766,198.0947,274.9766,208.0947,278.9766,204.0947,274.9766" style="stroke:#181818;stroke-width:1;"/><line style="stroke:#181818;stroke-width:1;stroke-dasharray:2,2;" x1="202.0947" x2="500.4644" y1="274.9766" y2="274.9766"/><text fill="#000000" font-family="sans-serif" font-size="13" lengthAdjust="spacing" textLength="60.7153" x="214.0947" y="270.1201">event data</text></g><g class="message" data-participant-1="Admin" data-participant-2="Client"><polygon fill="#181818" points="185.0947,301.3281,195.0947,305.3281,185.0947,309.3281,189.0947,305.3281" style="stroke:#181818;stroke-width:1;"/><line style="stroke:#181818;stroke-width:1;" x1="27.8413" x2="191.0947" y1="305.3281" y2="305.3281"/><text fill="#000000" font-family="sans-serif" font-size="13" lengthAdjust="spacing" textLength="145.2534" x="34.8413" y="300.4717">Update fields and Submit</text></g><g class="message" data-participant-1="Client" data-participant-2="API"><polygon fill="#181818" points="489.4644,331.6797,499.4644,335.6797,489.4644,339.6797,493.4644,335.6797" style="stroke:#181818;stroke-width:1;"/><line style="stroke:#181818;stroke-width:1;" x1="197.0947" x2="495.4644" y1="335.6797" y2="335.6797"/><text fill="#000000" font-family="sans-serif" font-size="13" lengthAdjust="spacing" textLength="280.3696" x="204.0947" y="330.8232">PUT /api/events/:id {payload with ISO datetimes}</text></g><g class="message" data-participant-1="API" data-participant-2="DB"><polygon fill="#181818" points="643.0088,362.0313,653.0088,366.0313,643.0088,370.0313,647.0088,366.0313" style="stroke:#181818;stroke-width:1;"/><line style="stroke:#181818;stroke-width:1;" x1="501.4644" x2="649.0088" y1="366.0313" y2="366.0313"/><text fill="#000000" font-family="sans-serif" font-size="13" lengthAdjust="spacing" textLength="88.1436" x="508.4644" y="361.1748">UPDATE event</text></g><g class="message" data-participant-1="DB" data-participant-2="API"><polygon fill="#181818" points="512.4644,392.3828,502.4644,396.3828,512.4644,400.3828,508.4644,396.3828" style="stroke:#181818;stroke-width:1;"/><line style="stroke:#181818;stroke-width:1;stroke-dasharray:2,2;" x1="506.4644" x2="654.0088" y1="396.3828" y2="396.3828"/><text fill="#000000" font-family="sans-serif" font-size="13" lengthAdjust="spacing" textLength="82.4053" x="518.4644" y="391.5264">updated event</text></g><g class="message" data-participant-1="API" data-participant-2="Client"><polygon fill="#181818" points="208.0947,422.7344,198.0947,426.7344,208.0947,430.7344,204.0947,426.7344" style="stroke:#181818;stroke-width:1;"/><line style="stroke:#181818;stroke-width:1;stroke-dasharray:2,2;" x1="202.0947" x2="500.4644" y1="426.7344" y2="426.7344"/><text fill="#000000" font-family="sans-serif" font-size="13" lengthAdjust="spacing" textLength="44.0845" x="214.0947" y="421.8779">200 OK</text></g><g class="message" data-participant-1="Client" data-participant-2="Client"><line style="stroke:#181818;stroke-width:1;" x1="197.0947" x2="239.0947" y1="457.0859" y2="457.0859"/><line style="stroke:#181818;stroke-width:1;" x1="239.0947" x2="239.0947" y1="457.0859" y2="470.0859"/><line style="stroke:#181818;stroke-width:1;" x1="198.0947" x2="239.0947" y1="470.0859" y2="470.0859"/><polygon fill="#181818" points="208.0947,466.0859,198.0947,470.0859,208.0947,474.0859,204.0947,470.0859" style="stroke:#181818;stroke-width:1;"/><text fill="#000000" font-family="sans-serif" font-size="13" lengthAdjust="spacing" textLength="133.6753" x="204.0947" y="452.2295">router.push(/events/:id)</text></g><g class="message" data-participant-1="Client" data-participant-2="Client"><line style="stroke:#181818;stroke-width:1;" x1="197.0947" x2="239.0947" y1="500.4375" y2="500.4375"/><line style="stroke:#181818;stroke-width:1;" x1="239.0947" x2="239.0947" y1="500.4375" y2="513.4375"/><line style="stroke:#181818;stroke-width:1;" x1="198.0947" x2="239.0947" y1="513.4375" y2="513.4375"/><polygon fill="#181818" points="208.0947,509.4375,198.0947,513.4375,208.0947,517.4375,204.0947,513.4375" style="stroke:#181818;stroke-width:1;"/><text fill="#000000" font-family="sans-serif" font-size="13" lengthAdjust="spacing" textLength="86.6899" x="204.0947" y="495.5811">router.refresh()</text></g><!--SRC=[VP3BQiCm44Nt-eeXAtkHEdIPHS69tH8Qi8kT3r2jIJBWXv36AQ7qtoih9ZYuT2Vc7iqz31FN2AaYXlI2BKDSCLs8hqB8YZi3iMge5LeQfegqTCJ2qw-TQI2eQdAVmWL82rl_VaGZgId2OR6DrgGWo0_bZOxptIEQ6xADX0ZoplB9OF6nzs2o4S9BmF9bx80rP1hRcxQM9nJZt15khulVqX9ctThWaUew50FZq6JZo2BTfziIF2VSP7dVuKUW9ClRXsdzD9kv7RGB48w4jR8WMmL5_zaGpopTCMQMtrfUwqug-28-mwx8XXPaQj3-F8WVyYGkqx_4Uz-lncZc_hnQGVO-aRadfkiPpPFkxJcOE8N_iEwa1XqUYby0]--></g></svg>