<svg xmlns="http://www.w3.org/2000/svg" xmlns:xlink="http://www.w3.org/1999/xlink" contentStyleType="text/css" data-diagram-type="SEQUENCE" height="405px" preserveAspectRatio="none" style="width:820px;height:405px;background:#FFFFFF;" version="1.1" viewBox="0 0 820 405" width="820px" zoomAndPan="magnify"><title>Registration Flow</title><defs/><g><text fill="#000000" font-family="sans-serif" font-size="14" font-weight="bold" lengthAdjust="spacing" textLength="117.4482" x="350.3818" y="29.5332">Registration Flow</text><g><title>Student</title><rect fill="#000000" fill-opacity="0.00000" height="202.1094" width="8" x="28.1309" y="121.2188"/><line style="stroke:#181818;stroke-width:0.5;stroke-dasharray:5,5;" x1="32" x2="32" y1="121.2188" y2="323.3281"/></g><g><title>Web UI</title><rect fill="#000000" fill-opacity="0.00000" height="202.1094" width="8" x="180.7407" y="121.2188"/><line style="stroke:#181818;stroke-width:0.5;stroke-dasharray:5,5;" x1="184.4028" x2="184.4028" y1="121.2188" y2="323.3281"/></g><g><title>Next.js API .api.registrations</title><rect fill="#000000" fill-opacity="0.00000" height="202.1094" width="8" x="401.2896" y="121.2188"/><line style="stroke:#181818;stroke-width:0.5;stroke-dasharray:5,5;" x1="404.3657" x2="404.3657" y1="121.2188" y2="323.3281"/></g><g><title>Prisma . PostgreSQL</title><rect fill="#000000" fill-opacity="0.00000" height="202.1094" width="8" x="737.4673" y="121.2188"/><line style="stroke:#181818;stroke-width:0.5;stroke-dasharray:5,5;" x1="740.7227" x2="740.7227" y1="121.2188" y2="323.3281"/></g><g class="participant participant-head" data-participant="Student"><text fill="#000000" font-family="sans-serif" font-size="14" lengthAdjust="spacing" textLength="48.2617" x="5" y="118.1426">Student</text><ellipse cx="32.1309" cy="52.1094" fill="#E2E2F0" rx="8" ry="8" style="stroke:#181818;stroke-width:0.5;"/><path d="M32.1309,60.1094 L32.1309,87.1094 M19.1309,68.1094 L45.1309,68.1094 M32.1309,87.1094 L19.1309,102.1094 M32.1309,87.1094 L45.1309,102.1094" fill="none" style="stroke:#181818;stroke-width:0.5;"/></g><g class="participant participant-tail" data-participant="Student"><text fill="#000000" font-family="sans-serif" font-size="14" lengthAdjust="spacing" textLength="48.2617" x="5" y="336.8613">Student</text><ellipse cx="32.1309" cy="348.4375" fill="#E2E2F0" rx="8" ry="8" style="stroke:#181818;stroke-width:0.5;"/><path d="M32.1309,356.4375 L32.1309,383.4375 M19.1309,364.4375 L45.1309,364.4375 M32.1309,383.4375 L19.1309,398.4375 M32.1309,383.4375 L45.1309,398.4375" fill="none" style="stroke:#181818;stroke-width:0.5;"/></g><g class="participant participant-head" data-participant="UI"><rect fill="#E2E2F0" height="31.6094" rx="2.5" ry="2.5" style="stroke:#181818;stroke-width:0.5;" width="60.6758" x="154.4028" y="88.6094"/><text fill="#000000" font-family="sans-serif" font-size="14" lengthAdjust="spacing" textLength="46.6758" x="161.4028" y="110.1426">Web UI</text></g><g class="participant participant-tail" data-participant="UI"><rect fill="#E2E2F0" height="31.6094" rx="2.5" ry="2.5" style="stroke:#181818;stroke-width:0.5;" width="60.6758" x="154.4028" y="322.3281"/><text fill="#000000" font-family="sans-serif" font-size="14" lengthAdjust="spacing" textLength="46.6758" x="161.4028" y="343.8613">Web UI</text></g><g class="participant participant-head" data-participant="API"><rect fill="#E2E2F0" height="31.6094" rx="2.5" ry="2.5" style="stroke:#181818;stroke-width:0.5;" width="189.8477" x="310.3657" y="88.6094"/><text fill="#000000" font-family="sans-serif" font-size="14" lengthAdjust="spacing" textLength="175.8477" x="317.3657" y="110.1426">Next.js API /api/registrations</text></g><g class="participant participant-tail" data-participant="API"><rect fill="#E2E2F0" height="31.6094" rx="2.5" ry="2.5" style="stroke:#181818;stroke-width:0.5;" width="189.8477" x="310.3657" y="322.3281"/><text fill="#000000" font-family="sans-serif" font-size="14" lengthAdjust="spacing" textLength="175.8477" x="317.3657" y="343.8613">Next.js API /api/registrations</text></g><g class="participant participant-head" data-participant="DB"><rect fill="#E2E2F0" height="31.6094" rx="2.5" ry="2.5" style="stroke:#181818;stroke-width:0.5;" width="145.4893" x="668.7227" y="88.6094"/><text fill="#000000" font-family="sans-serif" font-size="14" lengthAdjust="spacing" textLength="131.4893" x="675.7227" y="110.1426">Prisma / PostgreSQL</text></g><g class="participant participant-tail" data-participant="DB"><rect fill="#E2E2F0" height="31.6094" rx="2.5" ry="2.5" style="stroke:#181818;stroke-width:0.5;" width="145.4893" x="668.7227" y="322.3281"/><text fill="#000000" font-family="sans-serif" font-size="14" lengthAdjust="spacing" textLength="131.4893" x="675.7227" y="343.8613">Prisma / PostgreSQL</text></g><g class="message" data-participant-1="Student" data-participant-2="UI"><polygon fill="#181818" points="172.7407,149.5703,182.7407,153.5703,172.7407,157.5703,176.7407,153.5703" style="stroke:#181818;stroke-width:1;"/><line style="stroke:#181818;stroke-width:1;" x1="32.1309" x2="178.7407" y1="153.5703" y2="153.5703"/><text fill="#000000" font-family="sans-serif" font-size="13" lengthAdjust="spacing" textLength="80.1836" x="39.1309" y="148.7139">Click Register</text></g><g class="message" data-participant-1="UI" data-participant-2="API"><polygon fill="#181818" points="393.2896,179.9219,403.2896,183.9219,393.2896,187.9219,397.2896,183.9219" style="stroke:#181818;stroke-width:1;"/><line style="stroke:#181818;stroke-width:1;" x1="184.7407" x2="399.2896" y1="183.9219" y2="183.9219"/><text fill="#000000" font-family="sans-serif" font-size="13" lengthAdjust="spacing" textLength="196.5488" x="191.7407" y="179.0654">POST /api/registrations { eventId }</text></g><g class="message" data-participant-1="API" data-participant-2="DB"><polygon fill="#181818" points="729.4673,210.2734,739.4673,214.2734,729.4673,218.2734,733.4673,214.2734" style="stroke:#181818;stroke-width:1;"/><line style="stroke:#181818;stroke-width:1;" x1="405.2896" x2="735.4673" y1="214.2734" y2="214.2734"/><text fill="#000000" font-family="sans-serif" font-size="13" lengthAdjust="spacing" textLength="312.1777" x="412.2896" y="209.417">validate capacity, create registration, generate qrCode</text></g><g class="message" data-participant-1="DB" data-participant-2="API"><polygon fill="#181818" points="416.2896,240.625,406.2896,244.625,416.2896,248.625,412.2896,244.625" style="stroke:#181818;stroke-width:1;"/><line style="stroke:#181818;stroke-width:1;stroke-dasharray:2,2;" x1="410.2896" x2="740.4673" y1="244.625" y2="244.625"/><text fill="#000000" font-family="sans-serif" font-size="13" lengthAdjust="spacing" textLength="104.7681" x="422.2896" y="239.7686">registration record</text></g><g class="message" data-participant-1="API" data-participant-2="UI"><polygon fill="#181818" points="195.7407,270.9766,185.7407,274.9766,195.7407,278.9766,191.7407,274.9766" style="stroke:#181818;stroke-width:1;"/><line style="stroke:#181818;stroke-width:1;stroke-dasharray:2,2;" x1="189.7407" x2="404.2896" y1="274.9766" y2="274.9766"/><text fill="#000000" font-family="sans-serif" font-size="13" lengthAdjust="spacing" textLength="164.4043" x="201.7407" y="270.1201">201 Created + registration id</text></g><g class="message" data-participant-1="UI" data-participant-2="Student"><polygon fill="#181818" points="43.1309,301.3281,33.1309,305.3281,43.1309,309.3281,39.1309,305.3281" style="stroke:#181818;stroke-width:1;"/><line style="stroke:#181818;stroke-width:1;stroke-dasharray:2,2;" x1="37.1309" x2="183.7407" y1="305.3281" y2="305.3281"/><text fill="#000000" font-family="sans-serif" font-size="13" lengthAdjust="spacing" textLength="128.6099" x="49.1309" y="300.4717">Show ticket / QR code</text></g><!--SRC=[RP11JyCm38Nl-HLFkx9HuDW34kk4L0b1ju8uXyGgOQKfYTb0YF-EKpRKIfoYsE_vUpOxRWaRQbpaeDdv3jUjtokb3Vk0cjyjTQnw7TWPr-kECNka9poKC-WepxHrInzy-X9nLPN8TE-oC9eS1ukqffugkFYgaQ7oaPj0zVfc4AwMIXtuM5mA2ZcArfdj8Iu59JNf95YEwgw-_uU9Bz1EHfGMtoefnR1QYdwdMsSr4upkjN7yEOS9b0fZ_nmDTHHI-IqKtf8Iy-8FEfRAn_XWVo77m1TdvoY6iHOdKxcpGtvH7hVCKJ_xFUGqMs8vo7e3av0_]--></g></svg>