<svg xmlns="http://www.w3.org/2000/svg" xmlns:xlink="http://www.w3.org/1999/xlink" contentStyleType="text/css" data-diagram-type="DESCRIPTION" height="471px" preserveAspectRatio="none" style="width:341px;height:471px;background:#FFFFFF;" version="1.1" viewBox="0 0 341 471" width="341px" zoomAndPan="magnify"><title>Use Case: Event Management - High level</title><defs/><g><g class="title" data-source-line="26"><text fill="#000000" font-family="sans-serif" font-size="14" font-weight="bold" lengthAdjust="spacing" textLength="277.751" x="24.6245" y="24.5332">Use Case: Event Management - High level</text></g><!--cluster Event Management System--><g class="cluster" data-entity="Event Management System" data-source-line="32" data-uid="ent0005" id="cluster_Event Management System"><rect fill="none" height="381" rx="2.5" ry="2.5" style="stroke:#181818;stroke-width:1;" width="237" x="98" y="45.6094"/><text fill="#000000" font-family="sans-serif" font-size="14" font-weight="bold" lengthAdjust="spacing" textLength="181.2822" x="125.8589" y="62.1426">Event Management System</text></g><!--entity UC1--><g class="entity" data-entity="UC1" data-source-line="33" data-uid="ent0006" id="entity_UC1"><ellipse cx="216.7321" cy="249.8558" fill="#F1F1F1" rx="91.7321" ry="20.7464" style="stroke:#181818;stroke-width:0.5;"/><text fill="#000000" font-family="sans-serif" font-size="14" lengthAdjust="spacing" textLength="154.082" x="139.6911" y="255.1605">Create/Edit/Delete Event</text></g><!--entity UC2--><g class="entity" data-entity="UC2" data-source-line="34" data-uid="ent0007" id="entity_UC2"><ellipse cx="216.3944" cy="104.4882" fill="#F1F1F1" rx="102.3944" ry="22.8789" style="stroke:#181818;stroke-width:0.5;"/><text fill="#000000" font-family="sans-serif" font-size="14" lengthAdjust="spacing" textLength="178.2266" x="127.2811" y="109.7929">Manage Speakers &amp; Venues</text></g><!--entity UC3--><g class="entity" data-entity="UC3" data-source-line="35" data-uid="ent0008" id="entity_UC3"><ellipse cx="216.2513" cy="392.3596" fill="#F1F1F1" rx="74.2513" ry="17.2503" style="stroke:#181818;stroke-width:0.5;"/><text fill="#000000" font-family="sans-serif" font-size="14" lengthAdjust="spacing" textLength="112.0479" x="160.2273" y="397.6643">Register for Event</text></g><!--entity UC4--><g class="entity" data-entity="UC4" data-source-line="36" data-uid="ent0009" id="entity_UC4"><ellipse cx="216.4886" cy="322.6071" fill="#F1F1F1" rx="75.4886" ry="17.4977" style="stroke:#181818;stroke-width:0.5;"/><text fill="#000000" font-family="sans-serif" font-size="14" lengthAdjust="spacing" textLength="115.1787" x="158.8992" y="327.9118">Check-in Attendee</text></g><!--entity UC5--><g class="entity" data-entity="UC5" data-source-line="37" data-uid="ent0010" id="entity_UC5"><ellipse cx="216.3701" cy="178.5611" fill="#F1F1F1" rx="61.8701" ry="15.4517" style="stroke:#181818;stroke-width:0.5;"/><text fill="#000000" font-family="sans-serif" font-size="14" lengthAdjust="spacing" textLength="83.2549" x="174.7427" y="183.8658">View Reports</text></g><!--entity Admin--><g class="entity" data-entity="Admin" data-source-line="28" data-uid="ent0002" id="entity_Admin"><ellipse cx="29.8413" cy="156.1094" fill="#F1F1F1" rx="8" ry="8" style="stroke:#181818;stroke-width:0.5;"/><path d="M29.8413,164.1094 L29.8413,191.1094 M16.8413,172.1094 L42.8413,172.1094 M29.8413,191.1094 L16.8413,206.1094 M29.8413,191.1094 L42.8413,206.1094" fill="none" style="stroke:#181818;stroke-width:0.5;"/><text fill="#000000" font-family="sans-serif" font-size="14" lengthAdjust="spacing" textLength="39.6826" x="10" y="222.1426">Admin</text></g><!--entity Staff--><g class="entity" data-entity="Staff" data-source-line="29" data-uid="ent0003" id="entity_Staff"><ellipse cx="29.8965" cy="284.1094" fill="#F1F1F1" rx="8" ry="8" style="stroke:#181818;stroke-width:0.5;"/><path d="M29.8965,292.1094 L29.8965,319.1094 M16.8965,300.1094 L42.8965,300.1094 M29.8965,319.1094 L16.8965,334.1094 M29.8965,319.1094 L42.8965,334.1094" fill="none" style="stroke:#181818;stroke-width:0.5;"/><text fill="#000000" font-family="sans-serif" font-size="14" lengthAdjust="spacing" textLength="28.793" x="15.5" y="350.1426">Staff</text></g><!--entity Student--><g class="entity" data-entity="Student" data-source-line="30" data-uid="ent0004" id="entity_Student"><ellipse cx="30.1309" cy="397.1094" fill="#F1F1F1" rx="8" ry="8" style="stroke:#181818;stroke-width:0.5;"/><path d="M30.1309,405.1094 L30.1309,432.1094 M17.1309,413.1094 L43.1309,413.1094 M30.1309,432.1094 L17.1309,447.1094 M30.1309,432.1094 L43.1309,447.1094" fill="none" style="stroke:#181818;stroke-width:0.5;"/><text fill="#000000" font-family="sans-serif" font-size="14" lengthAdjust="spacing" textLength="48.2617" x="6" y="463.1426">Student</text></g><!--link Admin to UC1--><g class="link" data-entity-1="Admin" data-entity-2="UC1" data-source-line="40" data-uid="lnk11" id="link_Admin_UC1"><path d="M50.19,195.3594 C61.63,200.4094 76.51,206.7194 90,211.6094 C112.05,219.5894 130.9159,225.5993 152.4759,231.9693" fill="none" id="Admin-to-UC1" style="stroke:#181818;stroke-width:1;"/><polygon fill="#181818" points="158.23,233.6694,150.7322,227.2832,153.4349,232.2526,148.4655,234.9553,158.23,233.6694" style="stroke:#181818;stroke-width:1;"/></g><!--link Admin to UC2--><g class="link" data-entity-1="Admin" data-entity-2="UC2" data-source-line="41" data-uid="lnk12" id="link_Admin_UC2"><path d="M50.04,171.2394 C61.18,162.8094 75.82,152.6594 90,145.6094 C108.68,136.3194 124.2156,130.2886 143.8656,123.9986" fill="none" id="Admin-to-UC2" style="stroke:#181818;stroke-width:1;"/><polygon fill="#181818" points="149.58,122.1694,139.789,121.1036,144.818,123.6937,142.2279,128.7227,149.58,122.1694" style="stroke:#181818;stroke-width:1;"/></g><!--link Admin to UC5--><g class="link" data-entity-1="Admin" data-entity-2="UC5" data-source-line="42" data-uid="lnk13" id="link_Admin_UC5"><path d="M50.05,185.7794 C74.63,184.7194 112.5756,183.0694 148.9956,181.4894" fill="none" id="Admin-to-UC5" style="stroke:#181818;stroke-width:1;"/><polygon fill="#181818" points="154.99,181.2294,145.8251,177.6232,149.9947,181.4461,146.1718,185.6157,154.99,181.2294" style="stroke:#181818;stroke-width:1;"/></g><!--link Student to UC3--><g class="link" data-entity-1="Student" data-entity-2="UC3" data-source-line="43" data-uid="lnk14" id="link_Student_UC3"><path d="M54.37,423.1794 C80.26,418.2694 117.0648,411.276 152.0148,404.656" fill="none" id="Student-to-UC3" style="stroke:#181818;stroke-width:1;"/><polygon fill="#181818" points="157.91,403.5394,148.3228,401.2842,152.9974,404.4699,149.8116,409.1444,157.91,403.5394" style="stroke:#181818;stroke-width:1;"/></g><!--link Staff to UC4--><g class="link" data-entity-1="Staff" data-entity-2="UC4" data-source-line="44" data-uid="lnk15" id="link_Staff_UC4"><path d="M44.57,315.1994 C65.12,316.0894 99.6356,317.5893 136.0556,319.1693" fill="none" id="Staff-to-UC4" style="stroke:#181818;stroke-width:1;"/><polygon fill="#181818" points="142.05,319.4294,133.2318,315.0431,137.0547,319.2127,132.8851,323.0355,142.05,319.4294" style="stroke:#181818;stroke-width:1;"/></g><!--link Admin to UC4--><g class="link" data-entity-1="Admin" data-entity-2="UC4" data-source-line="45" data-uid="lnk16" id="link_Admin_UC4"><path d="M45.29,225.6994 C54.9,246.8794 69.58,271.8594 90,287.6094 C107.19,300.8694 123.3152,307.67 144.0352,312.79" fill="none" id="Admin-to-UC4" style="stroke:#181818;stroke-width:1;"/><polygon fill="#181818" points="149.86,314.2294,142.0824,308.1872,145.006,313.0299,140.1632,315.9536,149.86,314.2294" style="stroke:#181818;stroke-width:1;"/></g><!--SRC=[PP2zQiD048JxVOf1HJfXufycHS38XZHfBEp-a4RoOUbaxbOE8UJT8ykN895k1hwTMQPXfT0EtjPdHMaz2xMT4xNQ4CT0P2Rm1ViRdUBTE5EplSiKRyC96jxOY9X2EuzjsLeNTQwcglvqNmut8lTqu-eXEVaNc7y6PPlWIu0-i1XgaMIUHhdObrONEpPKFZv9O0AEsVEKVMGXlz9Sw0EUSABh6IAxdB87rdQeywY6zwQ9grdxcSKbjGvRLRgIZD1w2fqiFt3WjVFwMxMHRv5n3AJfw_Zdr2rdRYDndkXNCauNtNh6hkK7]--></g></svg>